<svg xmlns="http://www.w3.org/2000/svg" viewBox="0 0 512 512">
<rect width="512" height="512" rx="115" fill="oklch(0.55 0.18 25)"></rect>
<g transform="translate(102 102) scale(3.2)">
  <rect x="18" y="24" width="12" height="52" rx="6" fill="white"></rect>
  <rect x="50" y="24" width="12" height="52" rx="6" fill="white"></rect>
  <rect x="18" y="44" width="44" height="12" rx="6" fill="white"></rect>
  <rect x="68" y="16" width="24" height="7" rx="3.5" fill="white" transform="rotate(-14 68 19.5)"></rect>
  <rect x="68" y="29" width="20" height="7" rx="3.5" fill="white" opacity="0.85" transform="rotate(-14 68 32.5)"></rect>
  <rect x="68" y="42" width="16" height="7" rx="3.5" fill="white" opacity="0.68" transform="rotate(-14 68 45.5)"></rect>
  <rect x="68" y="55" width="12" height="7" rx="3.5" fill="white" opacity="0.5" transform="rotate(-14 68 58.5)"></rect>
  <rect x="68" y="68" width="8" height="7" rx="3.5" fill="white" opacity="0.32" transform="rotate(-14 68 71.5)"></rect></g>
</svg>